<svg width="3245" height="1688" viewBox="0 0 3245 1688" fill="none" xmlns="http://www.w3.org/2000/svg">
<path d="M813.152 1265.3C813.152 1289.06 815.757 1308.43 820.965 1323.41C826.173 1338.38 835.288 1349.94 848.309 1358.07C848.634 1359.7 848.797 1362.47 848.797 1366.38V1373.7C848.797 1418.3 835.776 1453.13 809.734 1478.19C783.693 1503.26 750.001 1515.79 708.66 1515.79C667.645 1515.79 634.604 1504.56 609.539 1482.1C579.917 1456.06 565.105 1416.18 565.105 1362.47V1208.17C565.105 1186.36 557.944 1175.46 543.621 1175.46C538.087 1175.46 533.693 1176.76 530.438 1179.36L539.227 1252.12V1362.47C539.227 1406.74 546.551 1440.27 561.199 1463.06C545.574 1479.66 526.043 1492.68 502.605 1502.12C479.493 1511.23 455.893 1515.79 431.805 1515.79C392.742 1515.79 362.469 1506.35 340.984 1487.47C314.943 1464.68 301.922 1428.71 301.922 1379.56V1208.17C301.922 1186.36 294.76 1175.46 280.438 1175.46C274.904 1175.46 270.509 1176.76 267.254 1179.36L276.043 1252.12V1381.51C276.043 1417.97 280.926 1446.13 290.691 1465.98C258.79 1498.86 214.031 1515.3 156.414 1515.3C122.234 1515.3 93.4258 1506.67 69.9883 1489.42C42.9701 1469.57 29.4609 1442.87 29.4609 1409.34V1175.95C10.2552 1148.93 0.652344 1115.72 0.652344 1076.34C0.652344 1036.62 10.2552 1002.28 29.4609 973.309H147.137C170.249 973.309 189.943 981.935 206.219 999.188C191.896 1012.53 184.734 1023.6 184.734 1032.39C184.734 1042.48 190.431 1047.53 201.824 1047.53C216.147 1022.79 235.841 1003.09 260.906 988.446C290.203 971.844 324.546 963.543 363.934 963.543C393.882 963.543 420.086 969.891 442.547 982.586C465.333 995.282 482.26 1009.93 493.328 1026.53C508.628 1005.7 528.484 990.073 552.898 979.657C577.638 968.915 603.354 963.543 630.047 963.543C688.966 963.543 734.702 981.773 767.254 1018.23C799.155 1054.69 815.105 1104.66 815.105 1168.13L813.152 1265.3ZM1117.35 1235.03V1320.48C1119.63 1322.76 1123.37 1323.9 1128.58 1323.9C1133.79 1323.9 1137.53 1322.1 1139.81 1318.52C1142.09 1314.94 1143.23 1308.76 1143.23 1299.97V1230.15C1143.23 1198.9 1141.93 1178.22 1139.32 1168.13C1136.72 1157.72 1131.84 1152.51 1124.68 1152.51C1120.12 1152.51 1116.21 1154.14 1112.96 1157.39C1115.89 1189.62 1117.35 1215.5 1117.35 1235.03ZM934.734 1451.34C881.349 1399.9 854.656 1330.24 854.656 1242.35C854.656 1154.14 879.721 1084.64 929.852 1033.86C980.307 982.749 1046.39 957.196 1128.09 957.196C1209.8 957.196 1275.88 983.726 1326.34 1036.79C1376.47 1089.85 1401.53 1159.02 1401.53 1244.31C1401.53 1329.27 1377.28 1396.81 1328.78 1446.94C1280.6 1497.07 1215.01 1522.14 1132 1522.14C1048.99 1522.14 983.237 1498.54 934.734 1451.34ZM1691.08 1474.29C1691.08 1546.23 1673.34 1600.75 1637.86 1637.86C1605.96 1670.74 1564.94 1687.18 1514.81 1687.18C1465.01 1687.18 1426.76 1675.62 1400.07 1652.51C1373.37 1629.4 1360.03 1597.66 1360.03 1557.29C1360.03 1542.65 1361.98 1528.48 1365.89 1514.81C1369.79 1501.47 1373.86 1491.54 1378.09 1485.03C1396.97 1480.8 1418.95 1478.68 1444.01 1478.68C1469.08 1478.68 1497.56 1482.59 1529.46 1490.4C1531.74 1491.38 1535.48 1491.86 1540.69 1491.86C1549.15 1491.86 1553.39 1486.33 1553.39 1475.26C1514 1463.87 1480.96 1458.17 1454.27 1458.17C1440.59 1433.76 1433.76 1401.53 1433.76 1361.49V1037.27C1439.62 1033.04 1445.96 1029.62 1452.8 1027.02C1459.64 1024.42 1466.8 1021.16 1474.29 1017.25C1460.29 1010.09 1447.59 997.723 1436.2 980.145C1424.81 962.241 1419.11 941.408 1419.11 917.645C1419.11 876.629 1432.62 843.101 1459.64 817.059C1486.65 791.017 1519.7 777.997 1558.76 777.997C1598.15 777.997 1631.02 791.343 1657.39 818.036C1684.08 844.403 1697.43 877.606 1697.43 917.645C1697.43 949.872 1687.34 978.192 1667.16 1002.61C1646.97 1026.69 1622.4 1041.83 1593.43 1048.02C1593.43 1060.39 1598.15 1066.57 1607.59 1066.57C1624.19 1066.57 1641.11 1060.06 1658.37 1047.04C1658.69 1047.04 1659.34 1047.53 1660.32 1048.5C1661.62 1049.16 1665.2 1051.43 1671.06 1055.34C1677.25 1059.25 1683.92 1064.78 1691.08 1071.94V1474.29ZM2224.29 1265.3C2224.29 1288.74 2226.89 1307.62 2232.1 1321.94C2237.31 1336.26 2246.42 1347.5 2259.44 1355.63C2259.77 1357.26 2259.93 1360.35 2259.93 1364.91V1373.7C2259.93 1419.92 2245.93 1455.89 2217.94 1481.61C2193.2 1504.4 2162.6 1515.79 2126.14 1515.79C2101.4 1515.79 2078.78 1509.93 2058.27 1498.21C2037.76 1486.49 2023.11 1469.57 2014.32 1447.43C2003.26 1447.43 1997.72 1452.8 1997.72 1463.54C1997.72 1472.66 2003.42 1482.91 2014.81 1494.31C1993.65 1508.63 1961.75 1515.79 1919.11 1515.79C1858.89 1515.79 1810.71 1499.51 1774.58 1466.96C1738.77 1434.08 1720.87 1388.35 1720.87 1329.75C1720.87 1270.84 1739.91 1225.26 1778 1193.04C1812.83 1164.06 1857.91 1149.58 1913.25 1149.58C1932.13 1149.58 1950.36 1150.88 1967.94 1153.48C1979.66 1155.76 1986 1157.07 1986.98 1157.39C1987.96 1154.14 1988.45 1151.37 1988.45 1149.09C1988.45 1140.63 1981.28 1134.93 1966.96 1132C1952.64 1129.07 1933.92 1127.61 1910.81 1127.61C1861.65 1127.61 1819.66 1137.53 1784.83 1157.39C1768.88 1130.37 1760.91 1096.19 1760.91 1054.85C1760.91 1031.41 1763.84 1014 1769.7 1002.61C1793.13 991.864 1822.92 982.424 1859.05 974.286C1895.18 965.822 1933.27 961.59 1973.31 961.59C2055.99 961.59 2118.49 979.657 2160.81 1015.79C2203.13 1051.92 2224.29 1103.19 2224.29 1169.6V1265.3ZM1970.87 1289.23C1957.2 1289.23 1950.36 1295.41 1950.36 1307.78C1950.36 1319.5 1958.33 1325.36 1974.29 1325.36C1985.35 1325.36 1993.49 1322.76 1998.7 1317.55C2003.91 1312.01 2006.51 1302.57 2006.51 1289.23C2006.51 1289.23 1994.63 1289.23 1970.87 1289.23ZM2528.48 917.645V1260.91C2528.48 1309.41 2540.2 1340.98 2563.64 1355.63C2563.97 1357.26 2564.13 1360.35 2564.13 1364.91V1373.7C2564.13 1420.25 2552.25 1455.57 2528.48 1479.66C2505.05 1503.75 2471.68 1515.79 2428.39 1515.79C2385.09 1515.79 2350.75 1503.75 2325.36 1479.66C2295.09 1451.01 2279.95 1407.72 2279.95 1349.77V842.45C2314.13 821.616 2353.19 811.2 2397.14 811.2C2441.41 811.2 2474.29 820.64 2495.77 839.52C2517.58 858.075 2528.48 884.116 2528.48 917.645Z" fill="#0066D5"/>
<path d="M2707.67 619.347C2702.84 604.144 2694.38 598.465 2682.28 602.308C2669.56 606.348 2665.32 615.038 2669.55 628.379C2670.93 632.722 2672.53 636.142 2674.35 638.639C2676.48 641.037 2677.89 642.807 2678.6 643.95C2676.07 647.826 2668.61 654.978 2656.21 665.405C2606.51 706.804 2577.83 743.921 2570.16 776.756C2541.22 777.065 2513.35 767.815 2486.54 749.006C2459.64 729.886 2441.06 704.193 2430.81 671.927C2412.78 615.152 2421.28 560.71 2456.3 508.601C2491.32 456.492 2543.74 419.352 2613.54 397.182C2699.48 369.887 2772.51 370.772 2832.63 399.835C2886.82 426.343 2923.91 471.087 2943.92 534.068C2955.94 571.918 2958.46 608.347 2951.47 643.353C2944.39 678.049 2932.26 709.224 2915.09 736.879C2898.13 764.125 2879.52 787.282 2859.28 806.348C2847.93 800.731 2836.4 797.221 2824.68 795.819C2812.87 794.106 2803.86 794.236 2797.65 796.206C2791.76 798.078 2787.92 800.495 2786.12 803.455C2784.23 806.104 2784.22 810.377 2786.1 816.271C2817.3 815.583 2845.18 823.804 2869.75 840.934C2894.32 858.064 2911.33 881.521 2920.79 911.305C2931.93 946.363 2928.35 980.8 2910.06 1014.62C2891.14 1048.63 2863.38 1071.45 2826.77 1083.08C2790.16 1094.7 2754.63 1091.98 2720.18 1074.92C2685.73 1057.86 2662.94 1031.79 2651.8 996.736C2642.35 966.952 2642.4 938.075 2651.96 910.106C2625.6 895.936 2608.13 875.355 2599.56 848.363C2589.21 815.787 2589.78 786.918 2601.25 761.756C2611.33 740.795 2635.14 713.594 2672.68 680.155C2688.31 666.994 2698.76 655.818 2704.04 646.628C2709.22 637.127 2710.43 628.034 2707.67 619.347Z" fill="#0066D5"/>
</svg>
